<svg display="none" xmlns="http://www.w3.org/2000/svg">
  <symbol id="search" viewBox="0 0 612.08 612.08">
    <path d="M237.927,0C106.555,0,0.035,106.52,0.035,237.893c0,131.373,106.52,237.893,237.893,237.893
		c50.518,0,97.368-15.757,135.879-42.597l0.028-0.028l176.432,176.433c3.274,3.274,8.48,3.358,11.839,0l47.551-47.551
		c3.274-3.274,3.106-8.703-0.028-11.838L433.223,373.8c26.84-38.539,42.597-85.39,42.597-135.907C475.82,106.52,369.3,0,237.927,0z
		 M237.927,419.811c-100.475,0-181.918-81.443-181.918-181.918S137.453,55.975,237.927,55.975s181.918,81.443,181.918,181.918
		S338.402,419.811,237.927,419.811z" />
  </symbol>
  <symbol id="gift" viewBox="0 0 24 24">
    <path
      d="M9.06,1.93C7.17,1.92 5.33,3.74 6.17,6H3A2,2 0 0,0 1,8V10A1,1 0 0,0 2,11H11V8H13V11H22A1,1 0 0,0 23,10V8A2,2 0 0,0 21,6H17.83C19,2.73 14.6,0.42 12.57,3.24L12,4L11.43,3.22C10.8,2.33 9.93,1.94 9.06,1.93M9,4C9.89,4 10.34,5.08 9.71,5.71C9.08,6.34 8,5.89 8,5A1,1 0 0,1 9,4M15,4C15.89,4 16.34,5.08 15.71,5.71C15.08,6.34 14,5.89 14,5A1,1 0 0,1 15,4M2,12V20A2,2 0 0,0 4,22H20A2,2 0 0,0 22,20V12H13V20H11V12H2Z" />
  </symbol>
  <symbol id="heart" viewBox="0 0 32 32">
    <path
      d="M16,28.72a3,3,0,0,1-2.13-.88L3.57,17.54a8.72,8.72,0,0,1-2.52-6.25,8.06,8.06,0,0,1,8.14-8A8.06,8.06,0,0,1,15,5.68l1,1,.82-.82h0a8.39,8.39,0,0,1,11-.89,8.25,8.25,0,0,1,.81,12.36L18.13,27.84A3,3,0,0,1,16,28.72ZM9.15,5.28A6.12,6.12,0,0,0,4.89,7a6,6,0,0,0-1.84,4.33A6.72,6.72,0,0,0,5,16.13l10.3,10.3a1,1,0,0,0,1.42,0L27.23,15.91A6.25,6.25,0,0,0,29,11.11a6.18,6.18,0,0,0-2.43-4.55,6.37,6.37,0,0,0-8.37.71L16.71,8.8a1,1,0,0,1-1.42,0l-1.7-1.7a6.28,6.28,0,0,0-4.4-1.82Z" />
  </symbol>
  <symbol id="lock" viewBox="0 0 21.395 21.395">
    <path d="M16.641,9.635C16.641,5.634,15.893,0,10.558,0l0,0C5.224,0,4.476,5.634,4.476,9.635H2.258v11.76
		h16.879V9.635H16.641L16.641,9.635z M6.707,9.635c0-2.626,0.181-7.385,3.851-7.385l0,0c3.67,0,3.851,4.76,3.851,7.386L6.707,9.635
		L6.707,9.635z" />
  </symbol>
</svg>